<svg xmlns="http://www.w3.org/2000/svg" width="682.667" height="682.667" preserveAspectRatio="xMidYMid meet" version="1.0" viewBox="0 0 512 512"><metadata>Created by potrace 1.11, written by Peter Selinger 2001-2013</metadata><g fill="#000" stroke="none"><path d="M2459 4650 c-484 -54 -870 -416 -954 -894 -25 -146 -17 -329 20 -459 l14 -47 -42 -22 c-23 -13 -129 -68 -236 -123 -130 -67 -202 -109 -215 -128 -21 -28 -21 -37 -21 -802 0 -770 0 -774 21 -802 13 -17 298 -194 754 -468 682 -409 737 -440 779 -440 43 0 90 27 721 414 371 228 694 428 718 444 88 59 82 -8 82 853 l0 761 -23 34 c-18 27 -69 58 -239 149 -120 63 -220 118 -223 121 -3 3 3 44 14 90 59 257 24 515 -104 756 -128 242 -358 433 -620 516 -143 45 -306 62 -446 47z m281 -211 c194 -36 386 -150 515 -306 87 -106 185 -317 185 -399 l0 -24 -215 0 -215 0 -27 56 c-40 85 -121 167 -207 209 -229 111 -491 26 -606 -198 l-35 -67 -212 0 c-116 0 -214 4 -217 9 -9 14 41 175 75 244 48 95 110 177 195 256 97 91 198 150 322 191 150 48 288 57 442 29z m-52 -646 c153 -72 185 -281 60 -400 -102 -98 -253 -96 -353 4 -102 101 -97 268 11 362 82 72 177 84 282 34z m-549 -350 c91 -279 389 -401 650 -268 105 53 205 185 226 298 l7 37 216 0 215 0 -7 -61 c-8 -83 -58 -229 -109 -318 -49 -87 -177 -227 -257 -281 -82 -56 -168 -97 -267 -127 -78 -23 -105 -26 -238 -27 -128 -1 -162 3 -230 22 -302 87 -534 317 -618 612 -13 47 -27 106 -30 133 l-7 47 214 0 213 0 22 -67z m-264 -1083 l560 -299 3 -605 c1 -333 -1 -606 -5 -606 -5 1 -260 152 -568 338 l-560 337 -3 568 c-1 312 1 567 5 567 5 0 260 -135 568 -300z m1945 -267 l0 -568 -203 -124 c-624 -383 -870 -533 -883 -538 -12 -4 -14 80 -14 598 l1 604 547 297 c301 164 548 298 550 298 1 0 2 -255 2 -567z" transform="translate(0.000000,512.000000) scale(0.100000,-0.100000)"/></g></svg>