<?xml version="1.0" encoding="UTF-8" standalone="no"?>
<!DOCTYPE svg PUBLIC "-//W3C//DTD SVG 1.1//EN" "http://www.w3.org/Graphics/SVG/1.1/DTD/svg11.dtd">
<svg width="100%" height="100%" viewBox="0 0 335 456" version="1.1" xmlns="http://www.w3.org/2000/svg" xmlns:xlink="http://www.w3.org/1999/xlink" xml:space="preserve" xmlns:serif="http://www.serif.com/" style="fill-rule:evenodd;clip-rule:evenodd;stroke-linejoin:round;stroke-miterlimit:2;">
    <g transform="matrix(1,0,0,1,-88.7979,-28.2338)">
        <g transform="matrix(7.60008,0,0,7.60008,90.1292,23.9449)">
            <path d="M7.192,20.706C6.735,19.244 6.489,17.688 6.489,16.075C6.489,7.509 13.434,0.564 22,0.564C30.567,0.564 37.511,7.509 37.511,16.075C37.511,17.724 37.254,19.312 36.778,20.801L42.751,23.923L42.928,24.027L43.165,24.211L43.415,24.482L43.581,24.739C43.629,24.827 43.671,24.919 43.706,25.015L43.735,25.101L43.802,25.393L43.825,25.69L43.825,46.37C43.825,47.065 43.464,47.711 42.871,48.075L23.096,60.209L23.067,60.227L22.737,60.383L22.452,60.464L22.154,60.502L21.947,60.502L21.647,60.464L21.293,60.357L21.021,60.22L0.796,48.085C0.193,47.723 -0.175,47.072 -0.175,46.37L-0.175,25.696L-0.165,25.491L-0.094,25.129L0.014,24.847L0.165,24.579L0.351,24.343L0.642,24.083L0.915,23.915L7.192,20.706ZM3.825,45.238L20.05,54.972L20.05,37.682L3.825,29.029L3.825,45.238ZM39.825,29.065L24.05,37.67L24.05,54.931L39.825,45.251L39.825,29.065ZM34.553,16.974C34.092,23.505 28.648,28.66 22,28.66C15.352,28.66 9.908,23.505 9.447,16.974L15.539,16.974C15.977,20.151 18.703,22.598 22,22.598C25.297,22.598 28.023,20.151 28.461,16.974L34.553,16.974ZM22,19.671C20.325,19.671 18.917,18.525 18.518,16.974C18.444,16.687 18.405,16.386 18.405,16.075C18.405,15.323 18.636,14.625 19.031,14.047C19.678,13.101 20.767,12.48 22,12.48C23.234,12.48 24.322,13.101 24.97,14.047C25.365,14.625 25.596,15.323 25.596,16.075C25.596,16.386 25.556,16.687 25.482,16.974C25.083,18.525 23.675,19.671 22,19.671ZM34.422,14.047L28.201,14.047C27.348,11.438 24.894,9.553 22,9.553C19.106,9.553 16.652,11.438 15.799,14.047L9.578,14.047C10.548,8.062 15.74,3.491 22,3.491C28.26,3.491 33.452,8.062 34.422,14.047Z" style="fill:rgb(255,128,2);"/>
        </g>
    </g>
</svg>
